<?xml version="1.0" encoding="utf-8"?>
<!-- Generator: Adobe Illustrator 19.2.0, SVG Export Plug-In . SVG Version: 6.00 Build 0)  -->
<svg version="1.1" id="Layer_1" xmlns="http://www.w3.org/2000/svg" xmlns:xlink="http://www.w3.org/1999/xlink" x="0px" y="0px"
	 viewBox="0 0 701.7 688" style="enable-background:new 0 0 701.7 688;" xml:space="preserve">
<g>
	<path d="M478.2,252.9c-6.7,21.4,80.8-9.1,149.5,69.7c132.8,146.7-54.3,265.7-39.1,246.6c149-216.3-36.7-282.6-92-275
		c-28.1,12.5,29.3,15.6,62.9,35.7c54.7,33.3,70.3,94,11.8,161.5c24.5-63.9,27.2-96.3-0.3-96.9c-36-0.7-45.5,38-69.1,58.9
		c-4.4,4.3,59-78.2,21-94.1c-33.7-13.7-108.2,105.5-108.2,103.1c26.2-48.7,61.3-93.3,61.3-93.3c58.4-61.2-113.4-56.2-124.6,83.7
		c-9-88.7,67.8-114.9,87.4-138.4c71.6-69.3-38.6-88.9-102.7,45.5c7.7-62.5,39.9-79,67.6-102.2c32.2-14.2,32.3-119.7-80.1-12.3
		c66.8-65.4,92.8-86.4,70.2-132c-12-23.7-29.9,29.6-68.9,63.4c-14.2-26.1,90.6-80,57.7-132.3c-16.4-19.8-21.3,6-34.5,29.5
		c-2.1,4.3,44.2-96-24.2-69.5c-27.9,16.8,0.4,94.8-28.6,158.6c0,0,30.4-136.8-20.6-133.5c-68.3,7.1,26.4,163.8,7.8,133.3
		c-2-4.1-33.1-43.6-33.1-43.6s-35-47.9-36.2,12.3c1.4,32.2,12.2,28.1,47.7,54.6c36.4,36.5,36.8,77.4,36.6,83.6
		c0.4,1.4,0.4,1.8-0.1,0.9c0,0,0.1-0.4,0.1-0.9c-3.3-11.8-36.1-96-87.9-73.9c-34.4,27.4,60.5,65.8,74.9,85.3
		c19.1,22.3,18.4,44.1,18.2,47.3c1.3,2,1.4,2.5-0.1,0.7c0,0,0-0.4,0.1-0.7c-8-12.2-61.9-82.5-98.3-70.3
		c-26,20.9,11.8,43.4,59.9,74.3c25.2,13.5,35.2,56.6,35.2,56.6s-55.8-82.9-105.1-70.8c-15.5,5.5-12.1,38.5,69.6,109.5
		c16.5,11.3,27.9,20.9,25.6,21.4c-9.4-7.5-17.8-14.6-25.6-21.4c-45.4-31-129.7-74.8-76.9,22.5c1.5,1.7,1.9,2.4,0.6,1.3
		c-0.2-0.5-0.4-0.9-0.6-1.3c-10.8-11.8-77.2-74-40.5,41.3c-35.5-39.6-17.7-73.4-36.9-69.7c-14.7-2.3-61.2,89.3,123.6,187.5
		c-86.7-16.5-117.9-51.6-140.1-101.7C66.5,447.2,110.6,377,52.9,390.9c12.5-88.1,86.4-73.7,103.9-92.7
		c-1.8-27.9-85.1,4.7-122.6,66.6c0,0,45-117.4,137.9-92.1c27.5,2.9-56.2-63.4-141.3,44.5c-84.8,108.2,19.8,291,138.1,336.2
		c181,70.3,341.1,19.8,424.8-30.2c25.9-16.9,103.5-75.3,107.3-165.7C715.8,264,493.5,229.7,478.2,252.9 M337.2,206.9
		c13.2-23.5,27.7-5.8,12.7,4.6c-17.5,14.7-14.9,4.1-21.7,23.1C328.2,234.5,325.9,230.4,337.2,206.9z M339,116.4
		c4.7-17,27.7-10.2,8.2,10.9c-15.2,19.1-21.6,19-21.6,19C340.6,133.8,332.1,138.1,339,116.4z M263.6,170.9
		c19.2-14.7,43.2,63.3,43.2,63.3C292.9,188.9,254.6,188.1,263.6,170.9z M269.1,319.5c21.4-12.4,43.3,63.2,43.3,63.2
		C298.4,337.2,260.3,336.4,269.1,319.5z M246.6,387.8c27.9-18.6,62.3,63.9,62.3,63.9C267.5,403.3,241.9,405.1,246.6,387.8z
		 M173.5,532.8c4.6-13,73,65.8,130.1,75.7C217,591.6,166.9,545.4,173.5,532.8z M189.6,470.7c0,0,19.2-1.9,29.4,22
		c10.1,19.7,51.4,53,65.8,64.2l5,3.9c0,0-1.9-1.4-5-3.9l-49.5-38.1c0,0-20.9-13.4-10.5,6.2c8.2,10.9,25.2,17.9,85.9,55.7
		C296,571.8,146.7,493.4,189.6,470.7z M236.6,452.2c10.8-1.8,33.9,15.7,83.5,72.7C310,511.7,208.9,460.4,236.6,452.2z M361.6,259
		c27.9-16.6,31.4,9.3,6,17.2c-30.1,12.4-34.8,49-34.8,49S327.2,282,361.6,259z M400.1,335.1c14.7,6.7-45,35.7-58.3,61.2
		C361.7,360.2,377.1,326,400.1,335.1z M468.1,450.4c10.7-14.8,42.7-16.6-0.4,21.5c-41.1,37.7-66.9,54.7-62.7,48.3
		C452.5,473.6,459.1,465.3,468.1,450.4z M424.6,389.2c16.9-1.6,8.1,17.3-13.4,31.9c-21.5,17-36.8,42.5-36.8,42.5
		S405.5,388.9,424.6,389.2z M474.7,543.1c8.8-19.3-10.7-4.6-10.7-4.6l-51.6,46.2c0,0,54.1-50.6,64.9-74.1c9.2-25.7,28.3-23,28.3-23
		c44,18-99.9,107.6-112.8,116.1C450.7,564.1,466,555.7,474.7,543.1z M402.7,628.1c0,0,151.7-37.9,136.7-132.7
		c-5.6-43.3,13.1-21.5,13.1-21.5C571.1,506.7,541.4,600.7,402.7,628.1z"/>
</g>
</svg>
